<svg version="1.1" id="Layer_1" xmlns="http://www.w3.org/2000/svg" xmlns:xlink="http://www.w3.org/1999/xlink" x="0px" y="0px"
	 width="100%" viewBox="0 0 1280 720" enable-background="new 0 0 1280 720" xml:space="preserve">
<path fill="#000000" opacity="1.000000" stroke="none" 
	d="
M743.000000,721.000000 
	C495.364197,721.000000 248.228394,721.000000 1.046296,721.000000 
	C1.046296,481.060852 1.046296,241.121674 1.046296,1.091250 
	C427.552551,1.091250 854.105164,1.091250 1280.828857,1.091250 
	C1280.828857,240.999908 1280.828857,480.999939 1280.828857,721.000000 
	C1101.788208,721.000000 922.644104,721.000000 743.000000,721.000000 
M585.334351,372.499786 
	C585.334351,409.774384 585.334351,447.048950 585.334351,484.424408 
	C586.544312,484.588287 587.177795,484.751801 587.810547,484.748749 
	C630.633545,484.542267 673.471130,484.927307 716.274048,483.886139 
	C743.758850,483.217590 768.724670,473.706604 790.365601,456.438721 
	C819.201233,433.430054 835.522217,403.194733 840.851868,366.943115 
	C845.495850,335.355865 843.200256,304.405182 829.731018,275.071228 
	C817.142029,247.654404 799.287048,224.704880 771.642944,210.708313 
	C747.709351,198.590469 722.003845,195.147354 695.618408,195.099060 
	C660.453918,195.034714 625.289368,195.079849 590.124817,195.091614 
	C588.678528,195.092087 587.232178,195.231400 585.334351,195.329330 
	C585.334351,254.249741 585.334351,312.874756 585.334351,372.499786 
M539.378723,371.500244 
	C539.378723,312.784271 539.378723,254.068329 539.378723,195.360565 
	C504.719757,195.360565 470.803497,195.360565 436.989563,195.360565 
	C436.989563,306.991028 436.989563,418.345154 436.989563,529.678711 
	C471.261719,529.678711 505.169556,529.678711 539.378784,529.678711 
	C539.378784,477.090881 539.378784,424.795593 539.378723,371.500244 
M724.407837,529.987183 
	C727.188721,529.987183 729.969666,529.987183 733.030884,529.987183 
	C733.030884,523.722961 733.030884,518.015869 733.030884,512.214294 
	C683.694763,512.214294 634.800049,512.214294 585.683044,512.214294 
	C585.683044,518.226807 585.683044,523.934570 585.683044,529.987244 
	C631.860901,529.987244 677.645874,529.987244 724.407837,529.987183 
M765.325134,511.694336 
	C765.325134,517.463684 765.325134,523.233032 765.325134,529.263428 
	C768.723816,529.263428 771.621338,529.263428 774.920776,529.263428 
	C774.920776,526.024048 774.637634,523.033569 775.001404,520.123962 
	C775.355469,517.292480 776.372131,514.543884 777.097839,511.758881 
	C781.464539,513.415527 778.891113,517.103149 779.289673,519.823364 
	C779.735046,522.862793 779.391846,526.017761 779.391846,529.224854 
	C782.913330,529.224854 785.809875,529.224854 788.759155,529.224854 
	C788.839294,528.245178 788.938599,527.589844 788.939148,526.934387 
	C788.942932,522.447998 789.032471,517.958252 788.891602,513.475952 
	C788.662964,506.201080 783.814941,503.119598 777.092712,505.805084 
	C776.178467,506.170349 775.118530,506.543396 774.187866,506.425415 
	C771.429749,506.075897 768.702454,505.482483 765.325806,504.868591 
	C765.325806,507.510834 765.325806,509.134277 765.325134,511.694336 
M795.098267,509.695129 
	C791.861755,515.025818 791.585327,520.405762 795.380310,525.505310 
	C798.376892,529.531921 804.070007,531.124512 808.875427,529.483765 
	C813.072510,528.050720 816.000854,525.433594 816.116699,520.231323 
	C812.741028,520.453064 809.117371,518.164001 806.826111,522.573730 
	C806.636475,522.938782 803.573242,522.449768 803.538879,522.157837 
	C803.182617,519.137390 803.052063,516.069946 803.199524,513.032104 
	C803.222168,512.565002 804.955444,512.139526 805.932373,511.792969 
	C806.143433,511.718109 806.661133,511.993195 806.774048,512.231750 
	C809.083801,517.116211 812.666504,514.424744 816.175049,514.171082 
	C815.501404,509.549042 813.108765,506.827545 809.170410,505.613495 
	C803.994080,504.017792 799.322083,504.922150 795.098267,509.695129 
M750.109070,498.876770 
	C750.109070,508.941345 750.109070,519.005920 750.109070,529.202759 
	C753.708374,529.202759 756.770142,529.202759 759.721436,529.202759 
	C759.721436,518.355591 759.721436,507.828918 759.721436,496.716980 
	C756.277710,497.166809 753.264099,497.560455 750.109070,498.876770 
M825.270935,529.547607 
	C831.066467,528.096924 826.479187,523.894775 828.071960,521.000244 
	C824.720825,521.000244 821.952332,521.000244 819.117432,521.000244 
	C819.117432,523.920593 819.117432,526.643188 819.117432,529.551880 
	C821.095337,529.551880 822.754639,529.551880 825.270935,529.547607 
z"/>
<path fill="#FEFEFE" opacity="1.000000" stroke="none" 
	d="
M585.334351,371.999756 
	C585.334351,312.874756 585.334351,254.249741 585.334351,195.329330 
	C587.232178,195.231400 588.678528,195.092087 590.124817,195.091614 
	C625.289368,195.079849 660.453918,195.034714 695.618408,195.099060 
	C722.003845,195.147354 747.709351,198.590469 771.642944,210.708313 
	C799.287048,224.704880 817.142029,247.654404 829.731018,275.071228 
	C843.200256,304.405182 845.495850,335.355865 840.851868,366.943115 
	C835.522217,403.194733 819.201233,433.430054 790.365601,456.438721 
	C768.724670,473.706604 743.758850,483.217590 716.274048,483.886139 
	C673.471130,484.927307 630.633545,484.542267 587.810547,484.748749 
	C587.177795,484.751801 586.544312,484.588287 585.334351,484.424408 
	C585.334351,447.048950 585.334351,409.774384 585.334351,371.999756 
M724.974121,407.501068 
	C727.365356,404.956940 729.938232,402.558533 732.116638,399.843628 
	C742.003296,387.521912 746.520020,373.091980 748.531006,357.662659 
	C751.537048,334.599213 749.763916,312.161743 739.950012,290.775757 
	C733.658264,277.064941 724.690186,265.425079 709.187073,262.510773 
	C697.912231,260.391357 686.124573,261.000031 674.375000,260.382324 
	C674.375000,313.501862 674.375000,365.558868 674.375000,418.062531 
	C681.735596,418.062531 688.862061,417.888550 695.976868,418.103027 
	C706.832397,418.430267 716.201599,414.865051 724.974121,407.501068 
z"/>
<path fill="#FFFFFF" opacity="1.000000" stroke="none" 
	d="
M539.378784,372.000244 
	C539.378784,424.795593 539.378784,477.090881 539.378784,529.678711 
	C505.169556,529.678711 471.261719,529.678711 436.989563,529.678711 
	C436.989563,418.345154 436.989563,306.991028 436.989563,195.360565 
	C470.803497,195.360565 504.719757,195.360565 539.378723,195.360565 
	C539.378723,254.068329 539.378723,312.784271 539.378784,372.000244 
z"/>
<path fill="#04F805" opacity="1.000000" stroke="none" 
	d="
M723.919312,529.987183 
	C677.645874,529.987244 631.860901,529.987244 585.683044,529.987244 
	C585.683044,523.934570 585.683044,518.226807 585.683044,512.214294 
	C634.800049,512.214294 683.694763,512.214294 733.030884,512.214294 
	C733.030884,518.015869 733.030884,523.722961 733.030884,529.987183 
	C729.969666,529.987183 727.188721,529.987183 723.919312,529.987183 
z"/>
<path fill="#EEEEEE" opacity="1.000000" stroke="none" 
	d="
M765.325439,511.226044 
	C765.325806,509.134277 765.325806,507.510834 765.325806,504.868591 
	C768.702454,505.482483 771.429749,506.075897 774.187866,506.425415 
	C775.118530,506.543396 776.178467,506.170349 777.092712,505.805084 
	C783.814941,503.119598 788.662964,506.201080 788.891602,513.475952 
	C789.032471,517.958252 788.942932,522.447998 788.939148,526.934387 
	C788.938599,527.589844 788.839294,528.245178 788.759155,529.224854 
	C785.809875,529.224854 782.913330,529.224854 779.391846,529.224854 
	C779.391846,526.017761 779.735046,522.862793 779.289673,519.823364 
	C778.891113,517.103149 781.464539,513.415527 777.097778,511.758881 
	C776.372131,514.543884 775.355469,517.292480 775.001404,520.123962 
	C774.637634,523.033569 774.920776,526.024048 774.920776,529.263428 
	C771.621338,529.263428 768.723816,529.263428 765.325134,529.263428 
	C765.325134,523.233032 765.325134,517.463684 765.325439,511.226044 
z"/>
<path fill="#F2F1F1" opacity="1.000000" stroke="none" 
	d="
M795.333008,509.405701 
	C799.322083,504.922150 803.994080,504.017792 809.170410,505.613495 
	C813.108765,506.827545 815.501404,509.549042 816.175049,514.171082 
	C812.666504,514.424744 809.083801,517.116211 806.774048,512.231750 
	C806.661133,511.993195 806.143433,511.718109 805.932373,511.792969 
	C804.955444,512.139526 803.222168,512.565002 803.199524,513.032104 
	C803.052063,516.069946 803.182617,519.137390 803.538879,522.157837 
	C803.573242,522.449768 806.636475,522.938782 806.826111,522.573730 
	C809.117371,518.164001 812.741028,520.453064 816.116699,520.231323 
	C816.000854,525.433594 813.072510,528.050720 808.875427,529.483765 
	C804.070007,531.124512 798.376892,529.531921 795.380310,525.505310 
	C791.585327,520.405762 791.861755,515.025818 795.333008,509.405701 
z"/>
<path fill="#F6F6F6" opacity="1.000000" stroke="none" 
	d="
M750.179810,498.415436 
	C753.264099,497.560455 756.277710,497.166809 759.721436,496.716980 
	C759.721436,507.828918 759.721436,518.355591 759.721436,529.202759 
	C756.770142,529.202759 753.708374,529.202759 750.109070,529.202759 
	C750.109070,519.005920 750.109070,508.941345 750.179810,498.415436 
z"/>
<path fill="#EDEDED" opacity="1.000000" stroke="none" 
	d="
M824.842468,529.549744 
	C822.754639,529.551880 821.095337,529.551880 819.117432,529.551880 
	C819.117432,526.643188 819.117432,523.920593 819.117432,521.000244 
	C821.952332,521.000244 824.720825,521.000244 828.071960,521.000244 
	C826.479187,523.894775 831.066467,528.096924 824.842468,529.549744 
z"/>
<path fill="#020202" opacity="1.000000" stroke="none" 
	d="
M724.700378,407.728394 
	C716.201599,414.865051 706.832397,418.430267 695.976868,418.103027 
	C688.862061,417.888550 681.735596,418.062531 674.375000,418.062531 
	C674.375000,365.558868 674.375000,313.501862 674.375000,260.382324 
	C686.124573,261.000031 697.912231,260.391357 709.187073,262.510773 
	C724.690186,265.425079 733.658264,277.064941 739.950012,290.775757 
	C749.763916,312.161743 751.537048,334.599213 748.531006,357.662659 
	C746.520020,373.091980 742.003296,387.521912 732.116638,399.843628 
	C729.938232,402.558533 727.365356,404.956940 724.700378,407.728394 
z"/>
</svg>